<?xml version="1.0" standalone="no"?>
<!DOCTYPE svg PUBLIC "-//W3C//DTD SVG 20010904//EN"
 "http://www.w3.org/TR/2001/REC-SVG-20010904/DTD/svg10.dtd">
<svg version="1.0" xmlns="http://www.w3.org/2000/svg"
 width="600.000000pt" height="480.000000pt" viewBox="0 0 600.000000 480.000000"
 preserveAspectRatio="xMidYMid meet">

<g transform="translate(0.000000,480.000000) scale(0.100000,-0.100000)"
fill="#000000" stroke="none">
<path d="M2210 3809 c-432 -226 -822 -430 -867 -452 l-83 -41 0 -184 0 -184
-27 6 c-142 32 -526 86 -537 75 -2 -2 29 -130 70 -284 40 -154 74 -285 74
-291 0 -7 -41 -83 -90 -169 -50 -87 -89 -159 -88 -161 28 -27 507 -268 576
-288 22 -7 22 -10 22 -179 l0 -172 143 -73 c78 -40 202 -105 276 -144 l134
-71 -43 -22 -43 -22 104 -55 c57 -30 161 -86 232 -123 l127 -67 47 16 c26 9
52 16 58 16 7 0 162 -79 346 -175 183 -96 340 -177 349 -180 10 -3 163 71 364
176 l348 182 54 -17 54 -17 223 116 c122 64 226 120 231 125 4 4 -11 17 -35
27 l-44 19 175 92 c96 51 221 116 277 145 l103 52 2 169 c2 138 6 170 18 177
8 4 58 27 110 51 136 61 443 220 468 243 1 1 -38 73 -88 160 -49 86 -90 161
-90 166 0 5 34 136 75 291 41 155 72 284 69 287 -10 11 -406 -45 -536 -75
l-28 -6 0 183 -1 184 -861 450 c-473 248 -866 451 -872 453 -6 1 -364 -183
-796 -409z m1417 7 c340 -178 638 -333 662 -346 39 -19 42 -24 27 -32 -24 -13
-139 -5 -144 10 -2 7 -10 12 -17 12 -15 0 -14 3 -75 -247 -23 -95 -45 -173
-48 -173 -4 0 -246 60 -537 134 l-530 132 -220 -37 c-121 -21 -227 -38 -236
-38 -9 -1 -19 9 -23 22 l-5 23 -193 -23 c-106 -12 -203 -22 -216 -22 -18 -1
-28 -12 -43 -46 -11 -25 -23 -45 -27 -45 -4 0 -25 70 -46 156 -37 151 -55 187
-76 154 -12 -19 -108 -24 -154 -7 l-39 13 649 341 c357 188 655 342 661 342 7
1 290 -145 630 -323z m-1718 -506 c0 -22 -2 -21 -20 13 -15 29 -18 46 -12 75
l7 37 12 -50 c7 -27 12 -61 13 -75z m2255 5 c-9 -14 -18 -24 -20 -23 -3 4 15
99 24 118 4 9 8 -3 10 -27 2 -27 -3 -51 -14 -68z m-2594 44 c-15 -50 -15 -49
48 -43 44 5 66 2 90 -10 30 -16 32 -15 33 1 0 10 9 0 19 -23 21 -48 33 -54
110 -54 l59 0 7 -45 c3 -25 5 -48 2 -50 -2 -2 -127 -25 -278 -50 -151 -25
-287 -48 -302 -51 l-28 -6 0 121 0 120 122 65 c68 36 124 64 125 62 2 -1 -2
-18 -7 -37z m3016 -45 l84 -46 0 -144 0 -144 -191 0 c-159 0 -207 4 -283 21
-50 12 -94 24 -99 28 -4 4 -1 41 8 82 27 131 18 119 81 119 70 0 91 11 114 63
14 32 19 37 19 19 1 -22 2 -22 33 -6 24 12 45 15 90 10 l59 -7 -7 25 c-3 15
-3 26 1 26 4 0 45 -21 91 -46z m-1241 -160 l350 -88 -55 -13 c-328 -77 -353
-82 -431 -75 -106 10 -260 -4 -373 -32 -132 -34 -191 -64 -229 -118 -8 -12
-85 -34 -257 -73 -135 -31 -252 -57 -260 -58 -17 -1 -583 294 -576 300 3 4
340 65 437 80 27 4 53 -3 114 -31 43 -20 81 -36 85 -36 4 0 5 22 2 50 -4 45
-3 49 19 54 48 11 313 55 315 53 0 -1 6 -15 11 -32 6 -19 17 -31 32 -33 22 -3
22 -3 6 34 -8 20 -14 38 -13 39 12 9 411 73 438 70 19 -1 193 -42 385 -91z
m-875 76 c0 -5 -3 -10 -7 -10 -5 0 -73 -11 -153 -25 -80 -14 -146 -25 -147
-25 -2 0 -3 8 -3 18 0 16 16 20 118 34 144 19 192 21 192 8z m-330 -37 c-1
-19 -18 -30 -52 -36 -41 -6 -43 -5 -28 24 8 13 21 19 45 19 19 0 35 -3 35 -7z
m-17 -120 c3 -16 4 -30 2 -32 -2 -1 -22 7 -44 20 -44 24 -40 39 10 39 21 0 28
-6 32 -27z m2036 -123 c398 -99 381 -81 161 -174 -204 -87 -184 -86 -212 -8
-24 69 -49 92 -145 136 l-39 17 -180 -51 c-98 -28 -209 -60 -246 -71 l-67 -20
-45 -142 c-25 -78 -47 -152 -51 -163 -5 -20 -1 -22 47 -28 29 -4 59 -10 66
-15 7 -4 -83 -46 -233 -106 l-246 -99 -38 20 c-221 111 -778 410 -773 415 4 4
115 32 247 63 214 49 245 54 280 45 67 -19 294 -5 406 24 149 39 257 100 235
135 -6 11 22 19 209 62 77 18 160 38 185 45 25 7 56 10 70 7 14 -3 180 -44
369 -92z m-3194 -5 c202 -35 444 -98 507 -132 140 -76 62 -104 -234 -84 -94 7
-183 14 -197 17 -25 5 -31 -2 -91 -110 -36 -64 -67 -116 -70 -116 -3 0 -29 96
-59 213 -30 116 -56 220 -59 229 -4 15 1 17 24 13 16 -3 97 -16 179 -30z
m4273 18 c-48 -195 -114 -443 -118 -443 -3 0 -34 52 -70 116 -62 110 -66 115
-92 110 -64 -13 -353 -28 -411 -22 -72 8 -92 18 -84 40 21 54 266 129 627 191
74 13 139 23 144 24 4 1 6 -7 4 -16z m-2000 -19 c44 -7 42 -35 -6 -61 -110
-63 -446 -113 -552 -84 -40 11 -32 41 20 68 124 64 383 101 538 77z m-1066
-365 c321 -171 590 -315 598 -320 17 -11 -10 -8 -215 21 -348 50 -670 129
-861 210 -37 16 -45 24 -39 38 51 118 35 235 -45 325 -17 20 -30 37 -26 37 3
0 268 -140 588 -311z m1807 282 c19 -10 30 -20 25 -23 -5 -3 -87 -29 -183 -58
-170 -52 -175 -52 -227 -40 -30 7 -54 16 -54 20 0 8 356 118 385 118 11 1 35
-7 54 -17z m90 -106 c12 -31 21 -59 21 -64 0 -6 -251 -113 -417 -178 -10 -4
-13 18 -13 89 l0 95 163 48 c89 26 173 51 187 55 14 5 28 9 32 9 4 1 16 -24
27 -54z m-519 -43 l65 -19 3 -101 3 -101 -36 -15 c-31 -13 -44 -13 -118 1
l-84 16 19 61 c35 114 61 176 72 176 6 0 40 -8 76 -18z m785 -60 c1 -43 7 -79
18 -101 9 -19 17 -35 17 -37 0 -5 -177 -58 -345 -104 -272 -75 -670 -156 -732
-148 -17 2 145 76 508 230 294 125 534 227 534 227 0 1 0 -29 0 -67z m-2765
20 c0 -26 -46 -115 -73 -139 l-22 -21 -130 62 c-71 35 -145 72 -163 83 l-33
20 113 -4 c62 -3 145 0 183 5 112 15 125 14 125 -6z m3137 3 c78 0 136 -4 130
-8 -7 -5 -79 -42 -162 -82 -107 -53 -153 -71 -162 -64 -23 20 -71 104 -78 138
l-7 34 68 -9 c38 -5 133 -9 211 -9z m-3231 -214 c932 -393 1969 -413 2915 -54
85 32 249 106 366 164 l213 107 151 -266 c83 -145 147 -268 142 -272 -16 -16
-217 -123 -321 -172 -467 -219 -956 -356 -1484 -415 -190 -21 -673 -24 -863
-5 -531 52 -1016 183 -1490 400 -101 46 -353 177 -368 192 -5 4 60 127 143
273 l152 266 151 -79 c84 -44 216 -106 293 -139z m316 -888 c241 -119 435
-220 431 -224 -5 -3 -39 -16 -78 -27 l-69 -21 -371 187 -370 187 -3 58 c-2 40
1 57 9 57 7 0 210 -98 451 -217z m2878 160 l0 -58 -373 -188 -372 -187 -65 20
c-36 11 -72 23 -80 26 -14 5 849 441 878 443 8 1 12 -17 12 -56z m-2656 -148
c112 -25 341 -63 501 -82 213 -25 768 -25 975 1 173 21 396 58 515 86 47 11
89 20 93 19 4 0 -78 -43 -181 -95 -145 -73 -190 -100 -197 -119 -10 -27 -24
-30 -85 -15 -377 91 -893 91 -1270 0 -60 -14 -71 -12 -83 15 -8 17 -48 43
-139 89 -150 76 -246 129 -218 122 11 -3 51 -12 89 -21z m-359 -162 c288 -144
313 -159 292 -170 -12 -7 -30 -12 -40 -13 -10 0 -144 66 -297 146 -246 129
-280 150 -280 170 0 13 2 24 5 24 3 0 147 -71 320 -157z m3015 133 c0 -21 -31
-40 -280 -170 -154 -80 -286 -146 -294 -146 -8 0 -27 6 -42 12 -26 12 -13 19
292 169 175 87 320 158 322 158 1 1 2 -10 2 -23z m-1253 -165 c142 -22 336
-67 460 -107 132 -43 334 -127 326 -135 -4 -4 -94 -53 -200 -109 l-192 -101
-98 30 c-455 135 -971 135 -1426 0 l-98 -30 -92 49 c-51 27 -141 75 -201 107
l-108 57 77 35 c242 106 578 193 865 223 144 15 537 4 687 -19z m-166 -362
c96 -9 294 -43 329 -55 8 -3 -118 -74 -283 -160 l-297 -155 -290 152 c-160 83
-290 154 -290 158 0 9 209 48 320 60 111 12 393 13 511 0z"/>
<path d="M2780 3864 c-13 -33 -13 -54 0 -54 6 0 10 -65 10 -175 l0 -175 45 0
44 0 3 148 3 147 23 -110 c41 -197 35 -185 91 -185 l48 0 28 133 c16 72 32
141 36 152 4 11 8 -49 8 -132 l1 -153 45 0 45 0 0 215 0 215 -75 0 -74 0 -10
-34 c-5 -19 -17 -71 -27 -116 -9 -44 -20 -77 -24 -73 -4 4 -15 40 -24 78 -9
39 -21 87 -27 108 l-10 37 -75 0 c-71 0 -75 -1 -84 -26z"/>
<path d="M911 2390 c-72 -126 -131 -232 -131 -234 0 -8 410 -207 516 -250 777
-316 1615 -411 2439 -275 332 55 696 160 1005 290 102 43 464 220 478 233 5 6
-259 466 -268 466 -4 0 -81 -38 -172 -84 -432 -218 -888 -351 -1398 -407 -149
-17 -611 -17 -760 0 -514 56 -977 193 -1418 418 -79 40 -147 73 -152 73 -4 0
-66 -103 -139 -230z m3959 9 c0 -9 -11 -21 -25 -27 -14 -6 -25 -16 -25 -22 0
-6 20 -51 45 -100 25 -49 45 -93 45 -98 0 -8 -43 -32 -55 -32 -3 0 -27 45 -55
100 -28 55 -53 100 -56 100 -3 0 -15 -5 -26 -11 -16 -9 -23 -8 -29 2 -18 28
-7 40 79 83 87 44 101 45 102 5z m-3594 -54 c-3 -22 -8 -56 -11 -75 -6 -35 -6
-35 12 -14 10 11 32 37 49 58 l30 38 46 -23 45 -24 -58 -124 c-33 -69 -61
-126 -63 -128 -2 -2 -15 2 -30 8 -31 14 -30 21 21 124 39 78 38 78 -36 -17
-29 -38 -54 -68 -56 -68 -12 0 -55 24 -55 31 0 7 17 85 36 164 2 11 -13 -17
-35 -62 -40 -84 -48 -91 -81 -73 -18 9 -16 16 30 112 27 56 46 106 43 111 -3
4 3 17 12 27 17 18 18 18 62 -3 44 -22 45 -23 39 -62z m3386 -75 c22 -27 23
-78 3 -104 -13 -18 -10 -22 37 -57 l51 -39 -34 -14 c-33 -14 -35 -13 -80 20
-26 19 -49 34 -52 34 -4 0 3 -21 13 -46 11 -25 20 -47 20 -49 0 -5 -61 -28
-64 -24 -2 2 -23 50 -46 107 -23 56 -47 102 -52 102 -5 0 -8 12 -6 27 2 23 12
32 58 51 67 27 126 24 152 -8z m-3103 -6 c3 -3 -8 -40 -23 -82 -16 -42 -30
-93 -30 -112 -1 -32 1 -35 29 -35 28 0 32 5 67 94 21 52 39 96 41 98 8 7 57
-17 57 -28 0 -27 -66 -182 -86 -205 -39 -42 -128 -29 -171 24 -20 24 -15 73
12 146 14 36 24 70 23 74 0 4 2 15 7 25 6 15 15 18 38 13 17 -3 33 -9 36 -12z
m2836 -86 c34 -27 65 -91 65 -138 0 -101 -116 -162 -199 -104 -52 37 -76 145
-46 204 31 60 127 80 180 38z m-2578 -13 c2 -8 -9 -57 -26 -110 -17 -53 -29
-100 -26 -104 2 -5 25 -14 50 -21 39 -11 45 -16 39 -34 -4 -11 -8 -23 -10 -25
-8 -9 -164 44 -164 56 0 7 14 56 31 108 16 52 27 100 24 106 -4 6 0 18 9 28
18 20 64 17 73 -4z m223 -57 c47 -12 86 -22 88 -24 2 -1 -3 -12 -10 -24 -10
-17 -19 -20 -45 -15 -31 5 -32 4 -43 -37 -48 -180 -45 -173 -76 -170 -16 2
-31 6 -34 8 -2 3 8 53 23 111 30 111 28 122 -15 123 -21 0 -22 4 -8 31 13 24
17 24 120 -3z m2091 -17 c21 -22 29 -39 29 -66 0 -52 -15 -74 -66 -96 -46 -21
-50 -31 -35 -73 9 -22 7 -25 -20 -31 -17 -4 -35 -3 -39 1 -5 5 -20 54 -34 108
-13 54 -30 102 -36 106 -25 16 0 50 48 64 78 24 119 20 153 -13z m-1901 -42
c0 -11 -11 -71 -25 -135 -14 -64 -25 -117 -25 -120 0 -7 -45 -4 -58 4 -10 7
-9 27 8 102 12 52 20 103 18 114 -4 39 18 63 51 58 22 -3 31 -10 31 -23z
m1603 11 c7 0 21 -7 31 -15 18 -14 18 -15 -5 -34 -17 -13 -30 -16 -45 -11 -29
11 -67 -14 -45 -29 8 -5 34 -12 59 -16 82 -12 117 -80 72 -138 -42 -53 -139
-57 -184 -8 -16 17 -15 19 8 35 31 20 40 20 56 1 16 -20 44 -19 61 1 11 14 11
18 -4 29 -10 7 -36 15 -58 19 -79 13 -116 87 -65 135 25 24 73 42 94 35 8 -2
19 -4 25 -4z m-1382 -43 c19 -12 35 -30 37 -39 4 -22 -48 -31 -70 -11 -23 21
-62 10 -76 -22 -16 -34 -15 -108 0 -123 17 -17 65 -15 72 4 8 21 -1 34 -25 34
-22 0 -24 9 -6 34 11 14 21 16 66 10 47 -6 52 -9 47 -28 -2 -11 -7 -43 -11
-71 -4 -27 -8 -55 -10 -62 -6 -19 -45 -3 -45 19 0 18 -2 18 -22 4 -12 -9 -37
-16 -54 -16 -116 0 -139 204 -31 270 42 26 86 25 128 -3z m266 -32 c35 -15 53
-41 53 -80 0 -25 -33 -68 -59 -76 -10 -4 -7 -18 13 -57 14 -28 26 -54 26 -57
0 -3 -15 -5 -33 -5 -30 0 -35 5 -62 58 -16 31 -30 50 -31 42 -2 -8 -5 -32 -9
-53 -6 -36 -8 -38 -38 -35 -27 3 -32 7 -30 28 1 14 4 73 7 133 3 59 8 112 12
118 8 13 104 3 151 -16z m811 9 c12 -8 22 -19 22 -23 0 -15 -45 -28 -83 -23
-33 4 -38 2 -35 -13 2 -12 22 -24 57 -35 67 -22 83 -38 84 -84 2 -57 -38 -91
-107 -91 -44 0 -59 5 -80 24 -33 31 -33 37 2 55 26 13 29 13 40 -5 14 -22 54
-25 71 -5 10 12 8 18 -11 29 -13 8 -35 17 -49 21 -14 3 -38 15 -52 27 -38 29
-38 89 -1 118 33 26 109 28 142 5z m-523 -121 c20 -65 40 -130 45 -145 9 -27
8 -28 -26 -28 -28 0 -36 5 -44 25 -8 21 -16 25 -54 25 -38 0 -45 -3 -50 -25
-5 -21 -12 -25 -41 -25 -19 0 -35 2 -35 5 0 3 16 51 35 106 19 56 35 111 35
124 0 45 10 55 56 55 l43 0 36 -117z m270 95 l27 -21 -23 -13 c-14 -8 -39 -11
-60 -7 -38 5 -58 -8 -36 -24 6 -5 33 -17 60 -27 53 -20 67 -39 67 -89 0 -73
-101 -112 -170 -65 -44 30 -48 51 -14 67 23 10 28 9 41 -9 18 -26 66 -24 71 2
3 13 -11 24 -51 42 -65 28 -92 63 -82 103 9 41 43 63 96 63 33 0 54 -6 74 -22z"/>
<path d="M4543 2234 c-9 -4 -9 -12 -1 -32 18 -40 24 -45 47 -33 50 27 7 86
-46 65z"/>
<path d="M4282 2128 c-29 -29 -1 -130 43 -150 22 -10 29 -9 46 9 18 17 20 28
14 62 -12 72 -67 115 -103 79z"/>
<path d="M4016 2028 c13 -60 17 -66 42 -57 29 11 37 34 24 65 -9 18 -19 24
-43 24 -29 0 -30 -1 -23 -32z"/>
<path d="M2630 1909 c0 -38 1 -40 28 -37 34 4 44 45 16 65 -32 23 -44 16 -44
-28z"/>
<path d="M2920 1856 c-16 -43 -12 -56 14 -56 23 0 24 2 14 38 -13 48 -15 50
-28 18z"/>
<path d="M2796 1255 c4 -8 8 -15 10 -15 2 0 4 7 4 15 0 8 -4 15 -10 15 -5 0
-7 -7 -4 -15z"/>
<path d="M2550 1220 c0 -19 3 -21 12 -12 9 9 9 15 0 24 -9 9 -12 7 -12 -12z"/>
<path d="M3567 1200 c-3 -11 -1 -20 4 -20 5 0 9 9 9 20 0 11 -2 20 -4 20 -2 0
-6 -9 -9 -20z"/>
<path d="M3230 1190 c0 -11 4 -20 9 -20 5 0 7 9 4 20 -3 11 -7 20 -9 20 -2 0
-4 -9 -4 -20z"/>
<path d="M2910 1180 c-12 -8 -11 -10 8 -10 12 0 22 5 22 10 0 13 -11 13 -30 0z"/>
<path d="M2675 1160 c-3 -5 -2 -10 4 -10 5 0 13 5 16 10 3 6 2 10 -4 10 -5 0
-13 -4 -16 -10z"/>
<path d="M2430 1155 c0 -5 5 -17 10 -25 5 -8 10 -10 10 -5 0 6 -5 17 -10 25
-5 8 -10 11 -10 5z"/>
</g>
</svg>
